# Blender 3.3.1
# www.blender.org
mtllib Cork_Bulletin_Board.mtl
o Bulletin_Board
v -0.727962 1.927429 -0.000000
v 0.727962 1.927429 -0.000000
v -0.727962 3.264759 0.000000
v 0.727962 3.264759 0.000000
v -0.697670 3.241349 0.000000
v -0.697670 1.950839 -0.000000
v 0.697670 1.950839 -0.000000
v 0.697670 3.241349 0.000000
v -0.727962 1.927429 0.019086
v 0.727962 1.927429 0.019086
v -0.727962 3.264759 0.019086
v 0.727962 3.264759 0.019086
v -0.697670 3.241349 0.019086
v -0.697670 1.950839 0.019086
v 0.697670 1.950839 0.019086
v 0.697670 3.241349 0.019086
v -0.697670 3.241349 0.025431
v -0.697670 1.950839 0.025431
v 0.697670 1.950839 0.025431
v 0.697670 3.241349 0.025431
v -0.727962 3.264759 0.025431
v -0.727962 1.927429 0.025431
v 0.727962 1.927429 0.025431
v 0.727962 3.264759 0.025431
vn -0.0000 -0.0000 -1.0000
vn -0.0000 -0.0000 1.0000
vn 1.0000 -0.0000 -0.0000
vn -1.0000 -0.0000 -0.0000
vn -0.0000 1.0000 -0.0000
vn -0.0000 -1.0000 -0.0000
vt 0.023684 0.999925
vt 0.023393 0.000075
vt 0.000075 0.026976
vt 0.532747 0.999925
vt 0.532457 0.000075
vt 0.556065 0.026748
vt 0.023683 0.520015
vt 0.000075 0.493342
vt 0.532746 0.520015
vt 0.556065 0.493114
vt 0.034664 0.528612
vt 0.034672 0.991329
vt 0.521766 0.991329
vt 0.521758 0.528611
vt 0.008215 0.026963
vt 0.023413 0.008960
vt 0.547925 0.026761
vt 0.532476 0.008960
vt 0.008215 0.493329
vt 0.023664 0.511130
vt 0.547925 0.493127
vt 0.532727 0.511130
vt 0.034772 0.485064
vt 0.034772 0.035026
vt 0.521368 0.035026
vt 0.521368 0.485064
vt 0.026918 0.485114
vt 0.034827 0.493556
vt 0.026918 0.035075
vt 0.034717 0.026534
vt 0.529222 0.034976
vt 0.521313 0.026534
vt 0.529222 0.485015
vt 0.521423 0.493556
vt 0.016354 0.493277
vt 0.023605 0.502246
vt 0.016354 0.026911
vt 0.023471 0.017844
vt 0.539786 0.026813
vt 0.532534 0.017844
vt 0.539786 0.493179
vt 0.532669 0.502246
s 1
usemtl Cork_Board
f 6/12/1 5/11/1 8/14/1 7/13/1
f 6/12/1 1/1/1 3/7/1 5/11/1
f 7/13/1 2/4/1 1/1/1 6/12/1
f 8/14/1 4/9/1 2/4/1 7/13/1
f 5/11/1 3/7/1 4/9/1 8/14/1
f 14/24/2 15/25/2 16/26/2 13/23/2
f 14/24/3 13/23/3 17/27/3 18/29/3
f 16/26/4 15/25/4 19/31/4 20/33/4
f 11/19/4 9/15/4 22/37/4 21/35/4
f 10/17/3 12/21/3 24/41/3 23/39/3
f 4/9/5 3/7/5 11/20/5 12/22/5
f 1/2/6 2/5/6 10/18/6 9/16/6
f 2/6/3 4/10/3 12/21/3 10/17/3
f 3/8/4 1/3/4 9/15/4 11/19/4
f 18/29/2 17/27/2 21/35/2 22/37/2
f 19/32/2 18/30/2 22/38/2 23/40/2
f 20/33/2 19/31/2 23/39/2 24/41/2
f 17/28/2 20/34/2 24/42/2 21/36/2
f 12/22/5 11/20/5 21/36/5 24/42/5
f 9/16/6 10/18/6 23/40/6 22/38/6
f 13/23/6 16/26/6 20/34/6 17/28/6
f 15/25/5 14/24/5 18/30/5 19/32/5
